<mxfile host="app.diagrams.net" modified="2024-05-13T07:13:50.270Z" agent="Mozilla/5.0 (Windows NT 10.0; Win64; x64; rv:125.0) Gecko/20100101 Firefox/125.0" version="23.1.2" etag="1KzOhEFuT-2dE4Qz5FmB" type="github">
  <diagram name="Page-1" id="yXl0EF0WciRn9KG70bpu">
    <mxGraphModel>
      <root>
        <mxCell id="0" />
        <mxCell id="1" parent="0" />
      </root>
    </mxGraphModel>
  </diagram>
</mxfile>
